<?xml version="1.0" standalone="no"?>
<!DOCTYPE svg PUBLIC "-//W3C//DTD SVG 20010904//EN"
 "http://www.w3.org/TR/2001/REC-SVG-20010904/DTD/svg10.dtd">
<svg version="1.0" xmlns="http://www.w3.org/2000/svg"
 width="1200.000000pt" height="1200.000000pt" viewBox="0 0 1200.000000 1200.000000"
 preserveAspectRatio="xMidYMid meet">
<metadata>
Created by potrace 1.14, written by Peter Selinger 2001-2017
</metadata>
<g transform="translate(0.000000,1200.000000) scale(0.100000,-0.100000)"
fill="#000000" stroke="none">
<path d="M4069 11225 c-1 0 -3 -513 -4 -1140 -1 -627 -3 -1143 -4 -1146 0 -3
-25 -2 -53 2 -125 20 -534 33 -568 18 -13 -6 -15 -88 -15 -665 l0 -658 190 -2
c192 -1 240 -8 295 -43 34 -22 100 -89 100 -101 0 -6 4 -10 9 -10 5 0 11 -10
15 -22 8 -32 7 -30 19 -58 7 -17 11 -808 12 -2500 2 -1361 3 -2477 4 -2480 0
-3 298 -5 661 -5 l660 0 1 40 c0 22 0 907 1 1967 l0 1927 254 -1 c202 -1 259
-4 284 -16 17 -8 29 -17 26 -19 -2 -2 3 -25 11 -51 7 -26 16 -63 19 -82 3 -19
10 -43 15 -52 5 -10 8 -18 5 -18 -2 0 0 -16 6 -36 5 -20 11 -44 13 -53 2 -9
13 -56 25 -106 12 -49 23 -97 25 -106 2 -8 10 -44 19 -80 8 -35 23 -95 31
-134 16 -68 19 -79 31 -127 3 -13 7 -34 10 -48 3 -14 7 -33 10 -42 5 -16 10
-40 20 -87 3 -14 7 -28 9 -31 2 -4 7 -22 10 -41 3 -19 8 -42 11 -51 3 -9 7
-26 9 -37 3 -12 7 -30 10 -41 3 -11 7 -29 10 -41 2 -11 7 -30 11 -41 3 -11 7
-30 9 -41 2 -12 6 -32 9 -45 3 -12 8 -32 11 -45 2 -12 7 -34 11 -49 3 -15 5
-29 4 -30 -1 -2 3 -16 9 -31 6 -15 13 -42 16 -60 4 -18 17 -75 30 -127 13 -52
26 -109 30 -127 3 -18 10 -45 16 -60 6 -15 10 -29 9 -31 -3 -5 12 -87 18 -97
3 -5 7 -16 8 -25 3 -23 14 -73 20 -92 3 -9 7 -26 9 -37 3 -12 7 -30 10 -41 7
-27 10 -40 34 -145 27 -113 28 -118 45 -193 2 -9 9 -37 16 -62 7 -25 14 -54
16 -65 4 -23 12 -55 20 -87 3 -13 7 -34 10 -48 3 -14 7 -33 10 -42 3 -9 7 -25
9 -35 2 -10 11 -49 20 -88 9 -38 19 -78 21 -88 2 -9 6 -27 10 -40 3 -12 7 -33
10 -47 3 -14 7 -33 10 -42 3 -9 7 -25 9 -35 2 -10 11 -47 20 -83 9 -36 18 -74
20 -85 2 -11 6 -30 9 -42 11 -42 17 -68 22 -93 3 -14 12 -52 21 -85 8 -33 17
-69 19 -80 4 -22 11 -55 18 -83 20 -81 39 -161 42 -179 2 -12 9 -34 14 -48 5
-14 7 -25 5 -25 -2 0 0 -12 5 -26 6 -15 12 -41 15 -58 2 -17 11 -56 19 -88 9
-31 17 -67 20 -80 2 -12 8 -41 13 -63 5 -22 9 -104 8 -182 0 -90 3 -144 10
-146 5 -2 25 -3 43 -2 32 1 35 -1 78 -89 54 -108 65 -128 84 -151 8 -10 13
-19 10 -21 -3 -2 3 -13 13 -24 9 -11 17 -23 17 -26 0 -3 6 -11 13 -18 6 -7 21
-25 32 -41 21 -29 202 -214 246 -250 59 -50 108 -85 117 -85 6 0 12 -4 14 -9
5 -14 174 -114 270 -159 283 -134 632 -177 963 -118 17 3 48 8 70 11 22 4 47
8 55 10 8 2 33 7 55 10 40 5 63 9 115 20 14 2 41 7 60 11 19 3 40 7 47 8 7 1
15 4 17 7 3 3 -11 65 -30 139 -20 74 -38 143 -40 152 -6 25 -13 55 -19 75 -6
24 -45 174 -49 193 -2 8 -10 35 -17 60 -7 25 -14 52 -15 60 -2 8 -19 80 -39
160 -34 141 -38 159 -49 208 -3 13 -7 31 -10 40 -3 9 -7 28 -10 42 -2 14 -9
45 -15 70 -7 25 -13 54 -15 65 -6 36 -18 55 -29 48 -7 -4 -18 -8 -27 -9 -16
-3 -51 -11 -60 -14 -3 -1 -9 -3 -15 -5 -5 -1 -12 -3 -15 -4 -3 -2 -14 -4 -25
-6 -11 -2 -31 -6 -45 -10 -14 -3 -32 -8 -40 -10 -8 -2 -17 -4 -20 -5 -3 -1 -9
-3 -15 -5 -5 -1 -12 -3 -15 -4 -23 -11 -101 -15 -147 -7 -72 11 -223 103 -223
135 0 5 -5 11 -11 13 -5 2 -12 12 -14 23 -2 11 -4 21 -5 23 -2 1 -4 7 -5 12
-1 6 -3 11 -4 13 -2 1 -5 13 -7 27 -3 14 -9 43 -15 65 -12 43 -17 66 -25 105
-3 14 -7 33 -10 42 -3 9 -7 26 -9 37 -3 12 -7 29 -9 39 -2 9 -10 40 -16 67 -6
28 -14 58 -16 67 -2 10 -6 26 -8 35 -2 10 -9 38 -15 63 -7 25 -14 56 -16 70
-3 14 -8 36 -12 50 -3 14 -7 27 -8 30 0 3 -5 23 -10 45 -4 22 -9 45 -11 50 -4
14 -14 56 -19 80 -9 39 -15 65 -20 85 -3 11 -7 29 -10 41 -2 11 -6 28 -9 37
-3 9 -7 28 -10 42 -8 38 -13 61 -24 105 -6 22 -13 51 -16 65 -3 14 -7 35 -10
47 -4 13 -8 33 -11 45 -2 13 -7 35 -11 50 -3 15 -5 30 -5 33 0 2 -6 23 -14 45
-8 22 -14 43 -14 45 0 3 -2 18 -5 33 -4 15 -8 36 -10 47 -2 11 -11 47 -19 80
-9 33 -18 71 -21 85 -3 14 -8 36 -11 50 -3 14 -8 36 -11 50 -3 14 -7 33 -10
42 -3 9 -6 25 -8 35 -3 10 -12 50 -21 88 -9 39 -18 77 -20 85 -1 8 -8 33 -13
55 -6 22 -13 51 -16 65 -9 45 -15 71 -21 90 -3 10 -8 29 -10 42 -4 19 -8 36
-20 88 -1 3 -7 32 -15 65 -17 74 -17 74 -19 78 -2 1 -4 13 -6 27 -2 14 -13 63
-25 110 -12 47 -23 92 -25 100 -12 50 -37 159 -41 180 -3 14 -7 33 -10 42 -3
9 -7 26 -9 37 -3 12 -7 29 -9 39 -8 29 -46 196 -52 222 -3 14 -14 61 -26 105
-11 44 -21 89 -23 100 -6 38 -16 80 -22 100 -4 11 -7 22 -8 25 -1 6 -18 83
-20 90 0 3 -7 28 -14 56 -7 29 -14 58 -15 65 -3 15 -12 53 -27 114 -5 22 -11
49 -14 60 -2 11 -11 52 -20 90 -10 39 -19 84 -22 100 -3 17 -9 38 -14 48 -5 9
-7 17 -5 17 3 0 2 10 -3 23 -5 13 -12 40 -15 59 -3 19 -10 47 -16 62 -11 30
-2 43 75 101 41 31 168 155 217 213 147 170 277 449 303 647 16 122 18 272 18
1245 0 1094 -2 1176 -28 1305 -3 14 -7 37 -10 53 -3 15 -8 34 -12 42 -3 8 -7
17 -8 20 -3 12 -27 86 -32 100 -4 8 -7 17 -7 20 -2 6 -92 185 -111 218 -7 13
-21 34 -32 46 -11 13 -24 30 -29 38 -8 14 -123 146 -150 172 -178 174 -435
314 -669 367 -56 12 -83 16 -170 25 -40 5 -2481 13 -2536 9z m2443 -1353 l23
-22 0 -1035 c0 -994 -1 -1035 -19 -1057 l-18 -23 -579 -1 -579 -2 -12 22 c-6
11 -10 22 -9 24 5 5 -12 67 -21 80 -6 6 -7 12 -4 12 4 0 1 10 -6 23 -6 12 -13
27 -14 32 -7 28 -30 81 -39 87 -7 5 -7 8 0 8 6 0 6 3 0 8 -6 4 -26 39 -45 77
-19 39 -37 72 -40 75 -3 3 -26 36 -52 74 -79 115 -192 242 -283 316 -17 14
-34 30 -38 36 -5 8 79 11 299 10 168 0 308 3 311 7 3 5 5 291 5 635 0 345 4
629 8 632 5 3 252 5 549 5 l541 0 22 -23z"/>
</g>
</svg>
